<?xml version="1.0" standalone="no"?>
<!DOCTYPE svg PUBLIC "-//W3C//DTD SVG 20010904//EN"
 "http://www.w3.org/TR/2001/REC-SVG-20010904/DTD/svg10.dtd">
<svg version="1.0" xmlns="http://www.w3.org/2000/svg"
 width="228.000000pt" height="237.000000pt" viewBox="0 0 228.000000 237.000000"
 preserveAspectRatio="xMidYMid meet">

<g transform="translate(0.000000,237.000000) scale(0.100000,-0.100000)"
fill="#7f0000" stroke="none">
<path d="M0 1185 l0 -1185 1140 0 1140 0 0 1185 0 1185 -1140 0 -1140 0 0
-1185z m2130 -5 l0 -1040 -995 0 -995 0 0 1040 0 1040 995 0 995 0 0 -1040z"/>
<path d="M230 2170 c-19 -19 -20 -33 -20 -443 0 -445 0 -447 45 -447 45 0 45
4 45 410 0 406 0 410 45 410 44 0 45 -10 45 -301 0 -216 3 -279 13 -287 7 -7
66 -13 133 -14 l119 -3 3 -48 c5 -74 -1 -77 -147 -77 -133 0 -151 -5 -151 -45
0 -41 16 -45 195 -45 132 0 176 3 191 14 16 12 20 30 24 108 l5 93 109 3 c61
1 116 8 123 14 10 8 13 71 13 287 0 291 1 301 45 301 45 0 45 -4 45 -405 0
-401 0 -405 45 -405 45 0 45 2 45 442 0 500 12 458 -135 458 -143 0 -135 19
-135 -309 0 -219 -3 -271 -14 -280 -9 -7 -40 -11 -78 -9 -60 3 -63 4 -63 28 0
21 5 25 35 28 19 2 41 8 47 14 18 15 19 498 1 516 -17 17 -259 17 -276 0 -18
-18 -17 -501 1 -516 6 -6 26 -12 42 -14 24 -2 30 -8 30 -28 0 -24 -3 -25 -73
-28 -46 -2 -79 2 -88 9 -11 9 -14 61 -14 280 0 328 8 309 -135 309 -82 0 -98
-3 -115 -20z m528 -82 c17 -17 17 -319 0 -336 -15 -15 -61 -15 -76 0 -17 17
-17 319 0 336 7 7 24 12 38 12 14 0 31 -5 38 -12z"/>
<path d="M1280 2150 c-20 -20 -20 -32 -20 -690 0 -657 0 -670 20 -690 19 -19
33 -20 340 -20 307 0 321 -1 340 -20 19 -19 20 -33 20 -200 0 -167 -1 -181
-20 -200 -19 -19 -33 -20 -341 -20 -202 0 -327 -4 -340 -10 -26 -15 -26 -75 0
-90 13 -6 152 -10 385 -10 353 0 367 1 386 20 19 19 20 33 20 310 0 277 -1
291 -20 310 -19 19 -33 20 -315 20 -283 0 -296 1 -315 20 -20 20 -20 30 -18
605 2 463 6 587 16 597 10 10 91 14 345 18 l332 5 0 30 0 30 -397 3 c-387 2
-398 2 -418 -18z"/>
<path d="M1467 2084 c-4 -4 -7 -83 -7 -176 0 -166 0 -169 25 -193 l24 -25 241
0 241 0 25 25 c24 24 24 25 22 197 l-3 173 -35 0 c-34 0 -35 -2 -41 -43 -3
-24 -12 -48 -20 -53 -8 -5 -93 -9 -189 -9 -96 0 -181 4 -189 9 -8 5 -17 29
-20 53 -5 39 -9 43 -36 46 -17 2 -34 0 -38 -4z m493 -218 c0 -86 -1 -86 -210
-86 -209 0 -210 0 -210 86 l0 54 210 0 210 0 0 -54z"/>
<path d="M1457 1644 c-4 -4 -7 -157 -7 -341 0 -403 -11 -373 140 -373 152 0
141 -31 138 378 l-3 337 -40 0 -40 0 -5 -150 -5 -150 -45 0 -45 0 -5 150 -5
150 -35 3 c-20 2 -39 0 -43 -4z m178 -509 l0 -110 -45 0 -45 0 -3 99 c-1 55 0
106 3 113 3 10 18 13 47 11 l43 -3 0 -110z"/>
<path d="M1787 1644 c-4 -4 -7 -157 -7 -341 0 -403 -11 -373 140 -373 152 0
141 -31 138 378 l-3 337 -40 0 -40 0 -5 -150 -5 -150 -45 0 -45 0 -5 150 -5
150 -35 3 c-20 2 -39 0 -43 -4z m178 -509 l0 -110 -45 0 -45 0 -3 99 c-1 55 0
106 3 113 3 10 18 13 47 11 l43 -3 0 -110z"/>
<path d="M194 1236 c-3 -8 -4 -25 -2 -38 l3 -23 180 0 180 0 0 35 0 35 -178 3
c-148 2 -178 0 -183 -12z"/>
<path d="M624 1236 c-3 -8 -4 -25 -2 -38 3 -21 8 -23 81 -26 l77 -3 0 -29 0
-29 -72 -3 -73 -3 0 -35 0 -35 73 -3 72 -3 0 -34 0 -34 -72 -3 -73 -3 0 -30 0
-30 73 -3 c69 -3 72 -4 72 -27 0 -23 -3 -24 -72 -27 -70 -3 -73 -4 -73 -28 0
-24 3 -25 73 -28 69 -3 72 -4 72 -27 0 -23 -3 -24 -72 -27 l-73 -3 0 -35 0
-35 73 -3 c69 -3 72 -4 72 -27 0 -24 -3 -25 -60 -25 -47 0 -64 -4 -80 -20 -19
-19 -20 -31 -18 -208 l3 -187 40 0 40 0 3 158 3 157 34 0 34 0 3 -157 3 -158
40 0 40 0 3 233 2 232 30 0 30 0 2 -232 3 -233 40 0 40 0 3 158 3 157 39 0 39
0 3 -157 3 -158 35 0 35 0 3 182 c2 172 1 184 -18 203 -16 16 -33 20 -80 20
-57 0 -60 1 -60 25 0 24 3 25 60 25 78 0 100 19 100 89 0 44 3 50 23 53 16 2
22 10 22 28 0 18 -6 26 -22 28 -19 3 -23 10 -23 43 0 59 -26 79 -100 79 l-60
0 0 35 0 34 88 3 87 3 0 35 0 35 -87 3 -88 3 0 29 0 29 88 3 87 3 0 35 0 35
-119 3 c-78 2 -123 -1 -132 -9 -9 -7 -14 -32 -14 -70 0 -59 0 -59 -30 -59 -30
0 -30 0 -30 58 0 32 -5 63 -12 70 -18 18 -227 16 -234 -2z m306 -241 c0 -32
-2 -35 -30 -35 -28 0 -30 3 -30 35 0 32 2 35 30 35 28 0 30 -3 30 -35z m0
-130 c0 -21 -5 -25 -30 -25 -25 0 -30 4 -30 25 0 21 5 25 30 25 25 0 30 -4 30
-25z m160 0 c0 -22 -4 -25 -35 -25 -31 0 -35 3 -35 25 0 22 4 25 35 25 31 0
35 -3 35 -25z m-160 -110 c0 -21 -5 -25 -30 -25 -25 0 -30 4 -30 25 0 21 5 25
30 25 25 0 30 -4 30 -25z m160 0 c0 -22 -4 -25 -35 -25 -31 0 -35 3 -35 25 0
22 4 25 35 25 31 0 35 -3 35 -25z"/>
<path d="M194 1096 c-3 -8 -4 -25 -2 -38 2 -18 10 -24 38 -26 55 -6 60 -15 60
-109 0 -77 2 -85 21 -90 16 -5 19 -12 17 -42 -3 -33 -6 -36 -33 -36 l-30 0 -5
104 c-4 82 -8 106 -22 114 -12 8 -21 7 -32 -2 -13 -11 -16 -37 -16 -142 0
-155 7 -169 90 -169 l50 0 0 -104 c0 -82 -3 -106 -16 -117 -11 -9 -20 -10 -32
-2 -13 8 -18 31 -22 98 -4 67 -9 90 -22 98 -12 8 -21 7 -32 -2 -14 -11 -16
-43 -16 -208 0 -193 0 -194 25 -218 23 -24 29 -25 165 -25 136 0 142 1 165 25
25 24 25 25 25 218 0 165 -2 197 -16 208 -11 9 -20 10 -32 2 -13 -8 -18 -31
-22 -98 -4 -67 -9 -90 -22 -98 -12 -8 -21 -7 -32 2 -13 11 -16 35 -16 117 l0
104 50 0 c83 0 90 14 90 169 0 105 -3 131 -16 142 -11 9 -20 10 -32 2 -14 -8
-18 -32 -22 -114 l-5 -104 -30 0 c-27 0 -30 3 -33 36 -2 30 1 37 17 42 19 5
21 13 21 90 0 92 6 103 55 109 27 3 30 7 30 38 l0 35 -178 3 c-148 2 -178 0
-183 -12z m211 -136 c0 -63 -1 -65 -25 -65 -23 0 -25 4 -28 54 -4 68 2 83 30
79 21 -3 23 -8 23 -68z m83 -612 c16 -16 16 -80 0 -96 -16 -16 -200 -16 -216
0 -16 16 -16 80 0 96 16 16 200 16 216 0z"/>
</g>
</svg>
